<?xml version="1.0" standalone="no"?><!DOCTYPE svg PUBLIC "-//W3C//DTD SVG 1.1//EN" "http://www.w3.org/Graphics/SVG/1.1/DTD/svg11.dtd"><svg t="1513071557639" class="icon" style="" viewBox="0 0 1024 1024" version="1.1" xmlns="http://www.w3.org/2000/svg" p-id="5044" xmlns:xlink="http://www.w3.org/1999/xlink" width="32" height="32"><defs><style type="text/css"></style></defs><path d="M512 65.344C265.344 65.344 65.344 265.312 65.344 512S265.344 958.688 512 958.688c246.688 0 446.656-200 446.656-446.688S758.72 65.344 512 65.344zM512 894.688C301.024 894.688 129.344 723.008 129.344 512S301.024 129.344 512 129.344c211.008 0 382.656 171.68 382.656 382.656S723.04 894.688 512 894.688z" p-id="5045"></path><path d="M701.76 310.272c9.504-10.016 5.184-28.672-6.016-40s-31.008-15.008-42.176-3.68c-4.736 4.8-93.088 92.096-142.656 141.088-49.152-48.576-139.904-138.208-144.704-143.072-11.2-11.328-31.008-7.648-42.176 3.68s-15.488 30.016-6.016 40c2.208 2.304 19.104 18.944 41.088 40.512 46.912 45.984 116.96 114.464 118.656 116.128 0 8.224 0 18.72 0 30.048-18.912 0-43.488 0.032-67.008 0-33.12 0-63.712-0.064-71.776-0.224-15.488-0.32-24.96 16-24.96 32 0 18.496 10.976 32 24.96 32 7.2 0 52.16-0.064 94.24-0.16 16.064 0 31.616-0.032 44.576-0.064 0 4.288 0 8.416 0 12.768 0 16.704-0.032 34.176-0.032 51.616-6.656 0-13.952 0-21.824 0.032-45.696 0.032-106.368 0-118.24-0.224-15.488-0.32-24.96 16-24.96 32 0 18.496 10.976 32 24.96 32 10.016 0 93.28-0.128 140-0.224 0 27.68 0.032 51.968 0.096 68.256-0.032 12.384-0.064 20.672-0.096 22.976-0.224 12.512 15.328 22.272 31.008 22.496 16.224 0.224 32.512-7.008 32.992-22.496 0-0.224 0-0.896 0-1.184 0-0.288 0.224-0.544 0.224-0.8-0.032-2.048-0.064-8.832-0.064-19.136 0.064-16.672 0.064-41.6 0.064-70.08 47.104 0.096 127.904 0.224 137.76 0.224 14.016 0 24.96-13.504 24.96-32 0-16-9.472-32.32-24.96-32-11.584 0.224-69.952 0.256-115.296 0.224-8.064 0-15.584-0.032-22.496-0.032 0-22.048-0.032-44.128-0.064-64.416 13.12 0.032 28.96 0.064 45.28 0.064 42.016 0.096 86.656 0.16 93.824 0.16 14.016 0 24.96-13.504 24.96-32 0-16-9.472-32.32-24.96-32-8 0.16-38.368 0.224-71.328 0.224-23.808 0-48.768 0-67.904-0.032-0.032-17.12-0.032-27.84-0.032-27.84s71.424-69.792 118.912-116.352C682.656 329.216 699.52 312.608 701.76 310.272z" p-id="5046"></path></svg>