<svg xmlns="http://www.w3.org/2000/svg" width="221" height="154" viewBox="0 0 221 154">
    <g fill="none" fill-rule="evenodd" transform="translate(-7 -11)">
        <path fill="#F2F2F2" fill-rule="nonzero" d="M162.286 109.55l1.37-.54c.132-.052.26-.108.398-.162-5.224-1.934-8.418-7.252-7.69-12.803.729-5.55 5.185-9.853 10.73-10.358l-.955 4.842 3.624-4.786h.032c6.515.901 11.071 6.942 10.177 13.494-.03.226-.077.446-.12.668 1.117-.886 2.163-1.864 2.947-3 1.591-2.31 2.13-5.154 2.68-8.637a693.591 693.591 0 0 0 2.952-20.842c-5.603-1.7-9.146-7.245-8.355-13.076.05-.364.119-.718.199-1.069l.061-.262c.086-.338.181-.67.293-1 .018-.054.041-.104.06-.156.099-.274.198-.544.328-.8a11.563 11.563 0 0 1 .575-1.132c.053-.09.11-.177.165-.267.123-.2.252-.4.385-.586.072-.1.142-.2.215-.298l.054-.078c3.485-4.588 9.73-6.018 14.848-3.4l-1.241 6.299 3.58-4.73c3.953 3.369 5.269 8.931 3.247 13.729h.014c-.034.08-.076.156-.11.236-.065.148-.133.294-.199.44-.091.186-.199.368-.288.548-.076.136-.15.272-.23.4-.118.2-.246.38-.373.566-.076.108-.145.22-.223.326a9.97 9.97 0 0 1-.648.8c-.08.09-.165.173-.249.26-.161.173-.322.343-.493.505-.106.1-.217.2-.326.292-.158.14-.319.276-.484.4a11.2 11.2 0 0 1-.881.634c-.12.078-.239.156-.36.23-.199.122-.408.234-.617.344-.105.054-.199.114-.316.167-.314.154-.637.296-.965.422-.062.024-.127.042-.189.064-.274.1-.55.2-.831.27-.122.034-.245.062-.368.092-.23.056-.46.108-.693.152a11.269 11.269 0 0 1-1.104.146c-.137.012-.272.024-.411.032-.251.012-.504.014-.756.012a.411.411 0 0 0-.05 0 714.34 714.34 0 0 1-1.178 8.803 11.853 11.853 0 0 1 17.187-2.065l-3.119 5.317 5.015-3.319a11.99 11.99 0 0 1 2.288 8.835 11.807 11.807 0 0 1-.895 3.19c-1.96 4.497-6.45 7.335-11.33 7.159-4.88-.177-9.156-3.332-10.789-7.96-.046.296-.09.6-.135.892-.486 3.071-1.088 6.894-3.229 10.003-1.45 2.113-3.447 3.673-5.389 5.046a70.237 70.237 0 0 1-3.875 2.554 11.888 11.888 0 0 1-4.88 2.75 74.541 74.541 0 0 1-6.502 2.962l-1.383.544c-1.243.488-2.516.989-3.78 1.52.2.019.399.035.597.06 5.136.71 9.227 4.678 10.118 9.814l-8.417 4.623 8.391-.378a11.868 11.868 0 0 1-2.272 5.138c-3.945 5.136-11.24 6.177-16.45 2.348l.417.782c.278.517.553 1.03.82 1.54 3.646 6.951 3.91 12.953.745 16.904l-2.586-2.09c3.082-3.846.637-9.958-1.094-13.259-.262-.5-.533-1-.795-1.512-2.342-4.367-4.997-9.317-3.933-14.584 1.591-7.943 10.155-11.304 17.044-14.005zM50.59 124.38l-1.063-.425c-.103-.04-.198-.086-.304-.126 4.052-1.519 6.53-5.687 5.964-10.039-.566-4.35-4.023-7.723-8.324-8.121l.74 3.796-2.81-3.752h-.026a9.215 9.215 0 0 0-6.11 3.626 9.503 9.503 0 0 0-1.796 6.954c.023.18.06.35.092.525a11.132 11.132 0 0 1-2.285-2.356c-1.231-1.808-1.654-4.041-2.081-6.77a567.97 567.97 0 0 1-2.277-16.335c4.346-1.335 7.092-5.682 6.477-10.253a9.62 9.62 0 0 0-.156-.837l-.047-.2a9.83 9.83 0 0 0-.228-.78c-.013-.042-.031-.083-.047-.123a9.778 9.778 0 0 0-.253-.632l-.105-.231a9.747 9.747 0 0 0-.342-.655 2.916 2.916 0 0 0-.128-.2 10.751 10.751 0 0 0-.3-.46c-.056-.08-.11-.16-.167-.236l-.041-.06c-2.705-3.596-7.549-4.72-11.522-2.675l.964 4.94-2.78-3.707c-3.068 2.64-4.09 7.001-2.521 10.763h-.01c.026.062.057.122.085.185a8.79 8.79 0 0 0 .383.773c.058.108.115.215.178.32.091.15.198.296.289.443.06.084.113.173.174.255.158.217.326.426.502.629.061.07.129.134.198.2.124.135.25.268.383.402.081.08.168.155.253.23a8.308 8.308 0 0 0 .65.531c.135.099.271.201.408.284.093.062.186.122.28.18.157.097.317.183.479.27.083.044.162.09.245.132.245.12.494.231.75.33.046.02.098.032.145.05.212.078.427.15.647.213.093.026.197.048.284.07.178.044.356.086.538.12l.318.053a9.573 9.573 0 0 0 1.451.096h.038c.29 2.306.594 4.61.913 6.91a9.205 9.205 0 0 0-6.322-3.74 9.133 9.133 0 0 0-7.017 2.106l2.4 4.145-3.89-2.6a9.465 9.465 0 0 0-1.78 6.926c.116.864.35 1.707.699 2.503 1.52 3.526 5.006 5.751 8.792 5.613 3.786-.138 7.106-2.612 8.373-6.24.036.231.07.466.105.7.375 2.41.844 5.406 2.504 7.848 1.127 1.655 2.677 2.878 4.183 3.954a56.17 56.17 0 0 0 3.006 2.009 9.228 9.228 0 0 0 3.788 2.157 55.772 55.772 0 0 0 5.048 2.322l1.072.427c.964.382 1.953.774 2.927 1.191-.154.014-.31.026-.466.049-3.984.554-7.158 3.661-7.852 7.686l6.523 3.615-6.511-.295c.583 3.172 2.727 5.818 5.679 7.008a9.126 9.126 0 0 0 8.863-1.144c-.108.2-.215.402-.324.613a88.55 88.55 0 0 0-.636 1.205c-2.829 5.448-3.034 10.156-.577 13.255l2.002-1.639c-2.392-3.012-.494-7.806.85-10.395.198-.392.413-.788.625-1.185 1.816-3.414 3.876-7.305 3.055-11.436-1.227-6.214-7.879-8.84-13.223-10.966z"/>
        <ellipse cx="117.5" cy="160" fill="#D2D2D2" fill-rule="nonzero" rx="110.5" ry="5"/>
        <ellipse cx="117.5" cy="160" fill="#959595" fill-rule="nonzero" opacity=".1" rx="110.5" ry="5"/>
        <ellipse cx="117.5" cy="157" fill="#B6B6B6" fill-rule="nonzero" rx="110.5" ry="5"/>
        <path stroke="#3F3D56" stroke-width="4" d="M29.712 157c-.536-1.135.072-2.526.766-3.54.694-1.014 1.54-2.06 1.522-3.357-.025-1.855-1.735-2.949-3.1-3.932a15.779 15.779 0 0 1-2.782-2.578 4.75 4.75 0 0 1-.855-1.319c-.282-.725-.273-1.55-.256-2.345.06-2.645.173-5.289.34-7.929"/>
        <path fill="#30BFBF" fill-rule="nonzero" d="M24.003 131.866a3 3 0 0 1 1.5-2.462l.673 1.33-.02-1.61a3 3 0 1 1-2.154 2.743h.001zM28.331 150.361a2.999 2.999 0 0 0 3.31 1.57 2.979 2.979 0 0 0 2.355-2.793 2.919 2.919 0 0 0-.194-1.21 2.992 2.992 0 0 0-2.82-1.928 2.992 2.992 0 0 0-2.796 1.96l1.875 1.515L28 149c-.001.474.113.941.331 1.362z"/>
        <path fill="#30BFBF" fill-rule="nonzero" d="M29.82 145.991c1.53.118 2.896-.97 3.142-2.503.245-1.533-.71-3-2.2-3.378l.014 1.237-.672-1.344c-1.636-.077-3.024 1.201-3.1 2.856-.077 1.654 1.187 3.057 2.824 3.135l-.009-.003zM22.861 139.997a3.002 3.002 0 0 0 .282-5.993 2.967 2.967 0 0 0-1.608.38l.53 1.456-1.092-1.049a2.997 2.997 0 0 0 1.888 5.206z"/>
        <path fill="#000" fill-rule="nonzero" d="M24.346 132.882c.704.072 1.388.273 2.094.313.707.04 1.482-.115 1.93-.618.241-.274.36-.617.563-.912.193-.276.457-.504.77-.665.501.964.36 2.106-.362 2.943-.724.837-1.903 1.222-3.04.991-1.135-.23-2.029-1.035-2.301-2.074.115.004.23.012.346.022zM22.811 139.996c1.068.05 2.085-.421 2.678-1.24.594-.82.676-1.866.216-2.756-.241.15-.449.342-.611.565-.217.302-.349.65-.603.928-.474.513-1.283.681-2.018.65-.735-.033-1.443-.223-2.167-.285-.102 0-.204-.016-.306-.018.31 1.217 1.457 2.097 2.811 2.156zM29.784 144.996c1.066.05 2.083-.416 2.685-1.233.6-.816.699-1.863.258-2.763a2.413 2.413 0 0 0-.655.576c-.238.312-.387.67-.656.957-.516.534-1.385.722-2.17.704-.784-.018-1.49-.188-2.246-.24.378 1.143 1.493 1.944 2.784 2zM28 149.792c.65.894 2.09 1.37 3.503 1.158 1.413-.213 2.439-1.06 2.493-2.06a1.574 1.574 0 0 0-.206-.89 3.087 3.087 0 0 0-.697.429c-.303.255-.5.543-.85.783-.65.44-1.698.626-2.63.64a20.338 20.338 0 0 1-1.613-.06z" opacity=".1"/>
        <path fill="#656380" fill-rule="nonzero" d="M34 155.145s-1.881-.065-2.447-.52c-.565-.455-2.887-.998-3.034-.268-.148.73-2.828 3.631-.703 3.643 2.124.011 4.934-.382 5.5-.765.565-.382.684-2.09.684-2.09z"/>
        <path fill="#000" fill-rule="nonzero" d="M27.77 156.73c2.127.02 4.94-.4 5.508-.8.43-.308.601-1.418.66-1.93H34s-.119 1.786-.68 2.2c-.56.414-3.38.816-5.505.8-.614 0-.826-.262-.815-.644.08.226.315.374.77.374z" opacity=".2"/>
        <path stroke="#3F3D56" stroke-width="4" d="M216.712 159c-.536-1.135.072-2.526.766-3.54.694-1.014 1.54-2.06 1.522-3.357-.025-1.855-1.735-2.949-3.1-3.932a15.779 15.779 0 0 1-2.782-2.578 4.75 4.75 0 0 1-.855-1.319c-.282-.725-.273-1.55-.256-2.345.059-2.645.172-5.289.34-7.929"/>
        <path fill="#30BFBF" fill-rule="nonzero" d="M209.005 133.866a3 3 0 0 1 1.5-2.462l.673 1.33-.02-1.61a2.97 2.97 0 0 1 .99-.12 3 3 0 1 1-3.145 2.862h.002zM214.331 152.361a2.999 2.999 0 0 0 3.31 1.57 2.979 2.979 0 0 0 2.355-2.793 2.919 2.919 0 0 0-.194-1.21 2.992 2.992 0 0 0-2.82-1.928 2.992 2.992 0 0 0-2.796 1.96l1.875 1.515L214 151c-.001.474.113.941.331 1.362z"/>
        <path fill="#30BFBF" fill-rule="nonzero" d="M215.82 147.991c1.53.118 2.896-.97 3.142-2.503.245-1.533-.71-3-2.2-3.378l.014 1.237-.672-1.344c-1.636-.077-3.024 1.201-3.1 2.856-.077 1.654 1.187 3.057 2.824 3.135l-.009-.003zM208.861 142.997a2.998 2.998 0 0 0 3.136-2.856 2.999 2.999 0 0 0-4.462-2.756l.53 1.455-1.092-1.049a2.997 2.997 0 0 0 1.888 5.206z"/>
        <path fill="#000" fill-rule="nonzero" d="M209.346 134.882c.704.072 1.388.273 2.094.313.707.04 1.482-.115 1.93-.618.241-.274.36-.617.563-.912.193-.276.457-.504.77-.665.501.964.36 2.106-.362 2.943-.724.837-1.903 1.222-3.04.991-1.135-.23-2.029-1.035-2.301-2.074.115.004.23.012.346.022zM208.811 141.996c1.068.05 2.085-.421 2.678-1.24.594-.82.676-1.866.216-2.756-.241.15-.449.342-.611.565-.217.302-.349.65-.603.928-.474.513-1.283.681-2.018.65-.735-.033-1.443-.223-2.167-.285-.102 0-.204-.016-.306-.018.31 1.217 1.457 2.097 2.811 2.156zM214.784 146.996c1.066.05 2.083-.416 2.685-1.233.6-.816.699-1.863.258-2.763a2.413 2.413 0 0 0-.655.576c-.238.312-.387.67-.656.957-.516.534-1.385.722-2.17.704-.784-.018-1.49-.188-2.246-.24.378 1.143 1.493 1.944 2.784 2zM214 151.792c.65.894 2.09 1.37 3.503 1.158 1.413-.213 2.439-1.06 2.493-2.06a1.574 1.574 0 0 0-.206-.89 3.087 3.087 0 0 0-.697.429c-.303.255-.5.543-.85.783-.65.44-1.698.626-2.63.64a20.338 20.338 0 0 1-1.613-.06z" opacity=".1"/>
        <path fill="#656380" fill-rule="nonzero" d="M220 157.145s-1.881-.065-2.447-.52c-.565-.455-2.887-.998-3.034-.268-.148.73-2.828 3.631-.703 3.643 2.124.011 4.934-.382 5.5-.765.565-.382.684-2.09.684-2.09z"/>
        <path fill="#000" fill-rule="nonzero" d="M213.77 159.73c2.127.02 4.94-.4 5.508-.8.43-.308.601-1.418.66-1.93H220s-.119 1.786-.68 2.2c-.56.414-3.38.816-5.505.8-.614 0-.826-.262-.815-.644.08.226.315.374.77.374z" opacity=".2"/>
        <path stroke="#3F3D56" stroke-width="4" d="M171.25 152c.987-1.77-.134-3.94-1.422-5.52-1.288-1.579-2.86-3.226-2.827-5.243.047-2.894 3.219-4.6 5.755-6.135a27.94 27.94 0 0 0 5.165-4.019c.625-.615 1.223-1.272 1.588-2.059.525-1.129.51-2.42.477-3.654-.11-4.129-.318-8.252-.625-12.37"/>
        <path fill="#30BFBF" fill-rule="nonzero" d="M183.997 114.293a4.488 4.488 0 0 0-2.245-3.685l-1.006 1.991.03-2.414a4.5 4.5 0 1 0 3.22 4.106l.001.002zM176.507 143.558a4.504 4.504 0 0 1-8.499-2.328 4.503 4.503 0 0 1 8.716-1.295l-2.819 2.288 3.095-.718a4.475 4.475 0 0 1-.493 2.053zM173.684 134.99a4.496 4.496 0 0 1-4.626-3.78 4.502 4.502 0 0 1 3.202-5.046l-.024 1.855 1.016-2.012h.012a4.491 4.491 0 0 1 4.019 2.055 4.509 4.509 0 0 1 .21 4.516 4.493 4.493 0 0 1-3.809 2.422v-.01zM184.716 128.995a4.506 4.506 0 0 1-4.387-2.807 4.496 4.496 0 0 1 1.198-5.064 4.51 4.51 0 0 1 5.181-.55l-.805 2.179 1.637-1.569a4.496 4.496 0 0 1 1.19 4.85 4.505 4.505 0 0 1-4.024 2.961h.01z"/>
        <path fill="#000" fill-rule="nonzero" d="M183.485 115.783c-1.051.105-2.073.402-3.126.461-1.054.06-2.212-.17-2.877-.922-.36-.4-.539-.907-.842-1.344a3.148 3.148 0 0 0-1.145-.978c-.802 1.429-.618 3.149.469 4.412 1.088 1.264 2.883 1.842 4.605 1.483 1.722-.359 3.06-1.59 3.431-3.156-.173.016-.344.027-.515.044zM184.772 126.996c-1.598.067-3.118-.642-4.005-1.869-.888-1.227-1.014-2.793-.332-4.127.363.224.675.512.917.847.324.451.522.974.903 1.389.71.768 1.924 1.02 3.024.975 1.1-.045 2.16-.334 3.26-.428.153-.012.306-.021.461-.025-.466 1.83-2.193 3.151-4.228 3.238zM173.816 134.995c-1.596.07-3.117-.633-4.017-1.856-.9-1.222-1.05-2.789-.397-4.139.38.23.71.524.973.866.358.467.58 1.004 1 1.436.775.8 2.08 1.081 3.256 1.055 1.14-.023 2.236-.282 3.369-.362-.57 1.717-2.245 2.917-4.184 3zM177 144.587c-1.144 2.095-3.871 2.988-6.19 2.028-2.32-.96-3.41-3.433-2.477-5.615a4.63 4.63 0 0 1 1.044.86c.453.507.75 1.084 1.275 1.556.971.881 2.54 1.244 3.936 1.277.805.008 1.61-.027 2.412-.106z" opacity=".1"/>
        <path fill="#656380" fill-rule="nonzero" d="M165 151.716s3.491-.097 4.55-.78c1.058-.681 5.372-1.494 5.633-.402.261 1.092 5.248 5.436 1.306 5.465-3.943.029-9.16-.558-10.211-1.14-1.05-.583-1.278-3.143-1.278-3.143z"/>
        <path fill="#000" fill-rule="nonzero" d="M176.558 154.648c-3.944.027-9.165-.522-10.216-1.065-.792-.415-1.118-1.898-1.225-2.583H165s.222 2.392 1.273 2.934c1.05.543 6.272 1.092 10.216 1.065 1.138 0 1.532-.351 1.51-.86-.158.304-.592.496-1.44.509z" opacity=".2"/>
        <g fill-rule="nonzero">
            <path fill="#F2F2F2" d="M159.267 110.778h-41.818l-21.982 35.921A41.322 41.322 0 0 0 117.449 153c23.095 0 41.818-18.904 41.818-42.222z"/>
            <path fill="#3F3D56" d="M116.346 149.296a41.667 41.667 0 0 1-22.177-6.381l-.169-.106.105-.172 22.13-36.304h42.298v.202c0 23.579-18.925 42.761-42.187 42.761zm-21.798-6.619a41.271 41.271 0 0 0 21.798 6.216c22.977 0 41.681-18.892 41.789-42.156h-41.678l-21.909 35.94z"/>
            <path fill="#F2F2F2" d="M65.4 105.123c-.007 14.68 7.497 28.313 19.827 36.025l21.973-36.025L70.902 84.11a42.575 42.575 0 0 0-5.502 21.012z"/>
            <path fill="#3F3D56" d="M88.548 140.407l-.17-.106c-19.365-12.098-25.766-37.52-14.478-57.497l.1-.174 36.867 21.284-22.319 36.493zm-14.4-57.227c-11.012 19.706-4.724 44.679 14.271 56.672l21.891-35.795L74.148 83.18z"/>
            <path fill="#30BFBF" d="M128.678 56.704l-9.011 41.481h41.8c0-20.314-14.036-37.294-32.79-41.481z"/>
            <path fill="#3F3D56" d="M158.533 101.148H116l9.17-41.481.194.042c19.374 4.277 33.167 21.426 33.17 41.24v.2zm-42.036-.399h41.637c-.094-19.343-13.789-36.37-32.661-40.607l-8.976 40.607z"/>
            <path fill="#F2F2F2" d="M110.624 53C95.57 52.994 81.667 61.113 74.2 74.271l36.424 20.951 9.043-41.235a41.824 41.824 0 0 0-9.043-.987z"/>
            <path fill="#3F3D56" d="M111.358 98.926l-36.425-21.3.098-.174c9.063-16.201 27.36-24.5 45.177-20.49l.192.044-9.042 41.92zM75.47 77.477l35.618 20.828 8.842-40.992c-17.525-3.855-35.48 4.289-44.46 20.164zM133.89 87.074l-.29-.276 21.83-23.428h17.77v.403h-17.598z"/>
            <path fill="#30BFBF" d="M160.733 66.333H182v1h-21.267zM160.733 69.296H182v1h-21.267zM160.733 72.259H182v1h-21.267zM39 101.889h21.267v1H39zM39 105.593h21.267v1H39zM39 107.815h21.267v1H39z"/>
            <path fill="#3F3D56" d="M39 99.667h21.013l.059.087L76.4 123.881l-.328.23-16.269-24.039H39z"/>
        </g>
        <g fill-rule="nonzero" transform="translate(82 11)">
            <path fill="#3F3D56" d="M30 3a3 3 0 1 1-3-3 2.986 2.986 0 0 1 3 3z"/>
            <path fill="#3F3D56" d="M23.757 4.437a3.324 3.324 0 0 1-.044-2.817C24.117.731 24.89.125 25.773.002c-1.007-.04-1.948.556-2.436 1.542a3.308 3.308 0 0 0 .119 3.13c.562.936 1.545 1.44 2.544 1.304-.937-.038-1.788-.623-2.243-1.541zM24 9h9v14h-9z"/>
            <path fill="#000" d="M24 9h9v14h-9z" opacity=".1"/>
            <path fill="#F3C7CD" d="M9.8 60s-.955 2.13-3.22 2.42c-2.264.291-3.58.774-3.58.774L8.37 66l2.864-.29s.358-3 1.552-3.678C13.979 61.355 9.8 60 9.8 60zM48.2 60s.955 2.13 3.22 2.42c2.264.291 3.58.774 3.58.774L49.63 66l-2.864-.29s-.358-3-1.552-3.678C44.021 61.355 48.2 60 48.2 60z"/>
            <path fill="#3F3D56" d="M22.345 36s-1.45.71-1.933 2.128c0 0-2.651.827-4.111 3.07 0 0-1.815 1.892-2.056 2.836-.24.945-3.014 6.616-3.014 6.616S8.45 59.51 7 60.455c0 0 4.594-.944 5.44 3.545 0 0 1.088 0 2.297-4.135 1.209-4.134 4.11-9.215 4.11-9.215s.967-3.543 1.814-4.135c.846-.592 2.175-3.308 3.385-2.59 1.209.717 9.188-.12 9.188-.12s4.711 2.12 4.83 3.537c.118 1.417.966 1.536 1.086 2.718.12 1.181 4.594 10.513 4.594 10.513s.847 2.59 1.09 3.188c0 0 2.65-6.26 6.166-2.716 0 0-.122-2.363-1.21-3.786-1.086-1.423-5.803-12.521-5.803-12.521s-.483-1.654-.966-2.127c-.484-.472-4.234-4.254-5.563-4.254 0 0-.724-1.771-1.57-2.008L22.344 36zM10.993 65.831c-1.812.777-3.873.482-5.43-.779a10.702 10.702 0 0 0-2.422-1.5c-1.21-.522-2.657-.908-3.098-.035C-.755 65.102 9.74 69 9.74 69s1.37-.853 1.254-3.169zM47.007 65.831c1.812.777 3.873.482 5.43-.779a10.702 10.702 0 0 1 2.422-1.5c1.21-.522 2.657-.908 3.098-.035C58.755 65.102 48.26 69 48.26 69s-1.37-.853-1.254-3.169z"/>
            <path fill="#EDBAC1" d="M26.431 16.325c-.045.425-.185.884-.548 1.109-.297.186-.673.171-1.015.241-.73.183-1.328.7-1.613 1.396a3.607 3.607 0 0 0-.155 2.174c.08.354.186.703.314 1.043.358 1.014.792 2.02 1.462 2.863.572.67 1.215 1.276 1.918 1.808.435.354.885.715 1.421.882a4.49 4.49 0 0 0 1.114.148c.464.021.96.035 1.362-.195.618-.357.802-1.144 1.138-1.777.285-.536.71-.992.976-1.538.189-.43.327-.881.412-1.344l.572-2.535c.206-.921.396-1.96-.122-2.75a.47.47 0 0 0-.153-.158.576.576 0 0 0-.313-.031 3.393 3.393 0 0 1-1.887-.431.81.81 0 0 1-.238-.186.972.972 0 0 1-.144-.436 4.573 4.573 0 0 0-.264-.918.618.618 0 0 0-.18-.276.65.65 0 0 0-.29-.097 23.628 23.628 0 0 0-2.667-.278c-.293-.014-.735-.132-.937.128-.202.26-.138.849-.163 1.158z"/>
            <path fill="#F3C7CD" d="M26.431 16.325c-.045.425-.185.884-.548 1.109-.297.186-.673.171-1.015.241-.73.183-1.328.7-1.613 1.396a3.607 3.607 0 0 0-.155 2.174c.08.354.186.703.314 1.043.358 1.014.792 2.02 1.462 2.863.572.67 1.215 1.276 1.918 1.808.435.354.885.715 1.421.882a4.49 4.49 0 0 0 1.114.148c.464.021.96.035 1.362-.195.618-.357.802-1.144 1.138-1.777.285-.536.71-.992.976-1.538.189-.43.327-.881.412-1.344l.572-2.535c.206-.921.396-1.96-.122-2.75a.47.47 0 0 0-.153-.158.576.576 0 0 0-.313-.031 3.393 3.393 0 0 1-1.887-.431.81.81 0 0 1-.238-.186.972.972 0 0 1-.144-.436 4.573 4.573 0 0 0-.264-.918.618.618 0 0 0-.18-.276.65.65 0 0 0-.29-.097 23.628 23.628 0 0 0-2.667-.278c-.293-.014-.735-.132-.937.128-.202.26-.138.849-.163 1.158z" opacity=".1"/>
            <path fill="#30BFBF" d="M24.104 17.513a5.628 5.628 0 0 0-1.465-.226c-1.175-.028-2.432.369-3.11 1.31-.461.68-.63 1.51-.47 2.312a4.716 4.716 0 0 0 1.068 2.15c.31.323.586.677.822 1.056.324.604.335 1.328.423 2.015.205 1.637.916 3.175 1.198 4.802.281 1.627.039 3.512-1.27 4.546-.22.173-.487.357-.505.633-.029.441.557.629 1.006.671 1.346.125 2.726.248 4.033-.093.54-.14 1.061-.36 1.612-.461 1.397-.256 2.802.27 4.2.522 1.013.164 2.037.245 3.063.244.239.02.48-.01.705-.091a.554.554 0 0 0 .357-.552.956.956 0 0 0-.242-.404c-.707-.856-.923-1.995-1.116-3.082l-.647-3.65c-.347-1.952-.67-4.072.272-5.824.675-1.26 1.922-2.147 2.635-3.387.248-.374.36-.82.318-1.266-.107-.623-.68-1.068-1.267-1.328a4.851 4.851 0 0 0-3.578-.13c.02.874-.206 1.757-.352 2.621l-.248 1.412a17.621 17.621 0 0 1-.557 2.459c-.088.322-.24.625-.445.89-.22.24-.488.432-.787.563a4.763 4.763 0 0 1-2.083.468 2.83 2.83 0 0 1-.92-.14 3.904 3.904 0 0 1-1.268-.874 2.053 2.053 0 0 1-.334-.357 1.981 1.981 0 0 1-.228-.538 11.003 11.003 0 0 1-.393-1.508c-.061-.391-.082-.788-.11-1.183-.08-1.167-.08-2.458-.317-3.58z"/>
            <path fill="#F3C7CD" d="M22.028 41s-.482 5.888 2.532 6.886c3.013.998.362-4.887.362-4.887l-.966-1.776L22.028 41zM32.972 42s.482 5.888-2.532 6.886c-3.013.998-.362-4.887-.362-4.887l.966-1.776L32.972 42z"/>
            <path fill="#000" d="M19.805 18.37L19 19.936s.705 5.425.805 6.39c.087.695.222 1.38.404 2.049 0 0 .1 2.894.1 3.98 0 1.085.51 2.893.51 2.893.07 1.025.242 2.036.509 3.014.402 1.325.805 2.893.805 2.893s.51-1.688 2.516.844c.468-.568.468-1.481 0-2.05 0 0-.603-3.253-.603-4.943 0-1.69-1.108-9.76-1.108-9.76s-.72-9.175-3.133-6.878z" opacity=".1"/>
            <path fill="#30BFBF" d="M19.804 18.368L19 19.936s.704 5.426.804 6.39a14.7 14.7 0 0 0 .406 2.05s.1 2.894.1 3.978.51 2.894.51 2.894a15.43 15.43 0 0 0 .509 3.014c.402 1.328.806 2.894.806 2.894s.509-1.688 2.515.844c.467-.568.467-1.48 0-2.048 0 0-.604-3.254-.604-4.944s-1.107-9.762-1.107-9.762-.72-9.17-3.135-6.878z"/>
            <path fill="#000" d="M35.35 18.675l.515.707s.598 4.039-.724 9.143l-.406 4.627s-.712 3.917-.813 4.866c-.101.949-.101 1.067-.305 1.423a.518.518 0 0 0 0 .6l-.61 2.603s-.915-1.305-2.745.356c0 0-.514-.949-.102-1.78.411-.83.406-1.186.305-1.424-.101-.239.406-1.424.406-1.662s.717-5.692.717-5.692.305-5.34.61-7.12c.187-1.094.184-3.534.151-5.252-.032-1.789 1.823-2.758 2.916-1.5.025.031.056.061.085.105z" opacity=".1"/>
            <path fill="#30BFBF" d="M35.35 18.921l.515.7s.599 3.998-.724 9.047l-.407 4.58s-.712 3.875-.813 4.814c-.102.94-.103 1.058-.306 1.41a.505.505 0 0 0 0 .595l-.607 2.582s-.915-1.293-2.746.351c0 0-.515-.939-.101-1.76.413-.823.406-1.175.305-1.409-.101-.234.407-1.41.407-1.644 0-.234.712-5.637.712-5.637s.306-5.284.611-7.047.101-7.045.101-7.045 1.629-1.292 3.053.463z"/>
            <circle cx="29" cy="12" r="5" fill="#F3C7CD"/>
            <path fill="#000" d="M30 4.324C29.55 5.909 28.365 6.976 27.03 7c-1.337.023-2.544-1-3.03-2.57 1.787-.907 3.613-.099 3.613-.099.913-.404 1.704-.367 2.387-.007z" opacity=".1"/>
            <path fill="#3F3D56" d="M29.38 5.265S20.066 2.15 22.365 17.27c0 0 2.057 1.269 3.628.461 0 0-1.088-10.503 3.146-10.042 4.234.461 3.508 9.812 3.508 9.812s2.42.691 3.146-.584S35.55 3.196 29.38 5.265z"/>
            <path fill="#000" d="M28.874 7.015c-2.556-.328-2.908 4.713-2.872 7.91.03-3.178.505-7.495 2.872-7.189 2.657.343 3.093 5.4 3.124 8.264.03-2.629-.224-8.61-3.124-8.985zM21.272 17.424A47.955 47.955 0 0 1 21 13a45.826 45.826 0 0 0 .272 5.191s1.547 1.406 2.728.511c0 0-.018-.276-.04-.739-1.177.834-2.688-.539-2.688-.539zM34.814 17.415c-.606 1.288-2.524.723-2.783.636-.013.466-.031.746-.031.746s2.164.752 2.814-.636c.133-.284.203-1.087.183-2.161-.019.689-.083 1.203-.183 1.415z" opacity=".1"/>
        </g>
        <path fill="#F2F2F2" fill-rule="nonzero" d="M66.043 21.29l-3.622 2.388 2.199-4.158a3.49 3.49 0 0 0-2.184-.813h-.06a4.122 4.122 0 0 1-.75-.058l-1.228.809.526-.995a4.402 4.402 0 0 1-2.148-1.694l-2.197 1.444 1.39-2.625C56.683 13.984 54.952 13 53.044 13c-2.284 0-4.319 1.414-5.632 3.616-.791 1.34-2.212 2.137-3.724 2.089h-.123c-2.523 0-4.565 2.974-4.565 6.643 0 3.67 2.044 6.642 4.565 6.642a3.31 3.31 0 0 0 1.588-.413c1.645-.89 3.805-.906 5.528-.112a5.555 5.555 0 0 0 4.7.01c1.71-.777 3.844-.76 5.48.112a3.316 3.316 0 0 0 1.573.413C64.957 32 67 29.026 67 25.358a8.704 8.704 0 0 0-.957-4.067z"/>
        <path fill="#000" fill-rule="nonzero" d="M58 29.072a6.56 6.56 0 0 0-3.87.428c-1.48.67-3.17.666-4.647-.01-1.706-.77-3.841-.754-5.469.108a3.326 3.326 0 0 1-1.57.4c-2.216 0-4.06-2.276-4.444-5.276a4.286 4.286 0 0 0 1.107-1.216C40.414 21.374 42.418 20 44.677 20c2.26 0 4.249 1.354 5.548 3.464a4.26 4.26 0 0 0 3.682 2.062h.051c1.767.002 3.298 1.444 4.042 3.546z" opacity=".03"/>
        <path fill="#F2F2F2" fill-rule="nonzero" d="M160.513 24.372l-1.803 1.26 1.1-2.184a1.694 1.694 0 0 0-1.096-.436h-.028a1.956 1.956 0 0 1-.375-.031l-.615.437.259-.537a2.222 2.222 0 0 1-1.074-.894l-1.097.765.694-1.385c-.591-.838-1.494-1.34-2.46-1.367-1.142 0-2.158.747-2.814 1.909-.397.704-1.107 1.12-1.86 1.092h-.062c-1.26 0-2.282 1.57-2.282 3.494 0 1.924 1.022 3.505 2.282 3.505.277-.001.55-.076.795-.218a3.025 3.025 0 0 1 2.761-.06 2.65 2.65 0 0 0 2.348 0 3.028 3.028 0 0 1 2.737.06c.245.142.518.217.795.218 1.26 0 2.282-1.568 2.282-3.505a4.78 4.78 0 0 0-.487-2.123z"/>
        <path fill="#000" fill-rule="nonzero" d="M158 30.436a3.33 3.33 0 0 0-2.127.258 2.848 2.848 0 0 1-2.555 0 3.255 3.255 0 0 0-3.008.065 1.7 1.7 0 0 1-.865.241c-1.22 0-2.233-1.367-2.445-3.171.243-.196.45-.442.61-.724.714-1.283 1.822-2.105 3.064-2.105s2.334.813 3.048 2.081c.434.78 1.202 1.251 2.026 1.24h.032c.972-.017 1.805.851 2.22 2.115z" opacity=".03"/>
        <path fill="#F2F2F2" fill-rule="nonzero" d="M41.753 54.537l2.852 1.89-1.727-3.289a2.74 2.74 0 0 1 1.721-.64h.045c.196.002.39-.013.584-.046l.963.64-.418-.786a3.481 3.481 0 0 0 1.686-1.34l1.726 1.144-1.078-2.074C49.117 48.77 50.477 48 51.973 48c1.796 0 3.393 1.116 4.426 2.85.62 1.058 1.733 1.688 2.918 1.651h.097c1.981 0 3.586 2.35 3.586 5.249 0 2.899-1.605 5.25-3.586 5.25a2.602 2.602 0 0 1-1.25-.328 4.965 4.965 0 0 0-4.34-.087c-1.177.55-2.521.55-3.697 0a4.974 4.974 0 0 0-4.304.087 2.609 2.609 0 0 1-1.235.32c-1.983 0-3.588-2.35-3.588-5.25-.01-1.118.25-2.22.753-3.205z"/>
        <path fill="#000" fill-rule="nonzero" d="M47 62.342a6.697 6.697 0 0 1 3.288.301 5.69 5.69 0 0 0 3.955 0 6.498 6.498 0 0 1 4.645.075c.412.184.87.28 1.337.282 1.883 0 3.448-1.594 3.775-3.697a3.336 3.336 0 0 1-.94-.854C61.953 56.955 60.244 56 58.323 56c-1.92 0-3.607.948-4.712 2.428-.669.907-1.852 1.455-3.122 1.444h-.048c-1.51-.012-2.81.999-3.442 2.47z" opacity=".03"/>
    </g>
</svg>
