<?xml version="1.0" encoding="UTF-8"?>
<svg width="50px" height="51px" viewBox="0 0 50 51" version="1.1" xmlns="http://www.w3.org/2000/svg" xmlns:xlink="http://www.w3.org/1999/xlink">
    <!-- Generator: Sketch 54.1 (76490) - https://sketchapp.com -->
    <title>50.1</title>
    <desc>Created with Sketch.</desc>
    <g id="Page-1" stroke="none" stroke-width="1" fill="none" fill-rule="evenodd">
        <g id="画板" transform="translate(-134.000000, -175.000000)" fill-rule="nonzero">
            <g id="50.1" transform="translate(134.000000, 174.000000)">
                <path d="M18.83,18.12 C22.7876033,14.1734819 29.1923967,14.1734819 33.15,18.12 L42.68,8.6 L42.68,8.6 C42.8143772,8.46833773 42.8901021,8.28812813 42.8901021,8.1 C42.8901021,7.91187187 42.8143772,7.73166227 42.68,7.6 C33.1229565,-1.41743927 18.1264569,-1.19585978 8.84,8.1 L9.34,8.6 L18.83,18.12 Z" id="路径" fill="#FFFFFF"></path>
                <path d="M15.84,25.31 C15.8426646,22.6094671 16.9224596,20.0215583 18.84,18.12 L9.32,8.62 L8.82,8.12 L8.82,8.12 C8.68974694,7.98303562 8.50901085,7.90549974 8.32,7.90549974 C8.13098915,7.90549974 7.95025306,7.98303562 7.82,8.12 C-1.49264375,17.9612269 -1.27090455,33.4297529 8.32,43 L8.82,42.5 L9.32,42 L16.91,34.41 L18.81,32.51 C16.8991225,30.6023188 15.8298366,28.0101106 15.84,25.31 L15.84,25.31 Z" id="路径" fill="#FFFFFF"></path>
                <polygon id="路径" fill="#999999" points="18.81 32.48 16.91 34.38 18.81 32.48"></polygon>
                <path d="M40.34,39.63 L42.68,42 L42.68,42 C47.1029778,37.5777766 49.5878443,31.5795018 49.5878443,25.325 C49.5878443,19.0704982 47.1029778,13.0722234 42.68,8.65 L33.15,18.17 C36.647082,21.6641195 37.1079526,27.1734256 34.24,31.2 L40.34,37.3 C40.6508426,37.6079838 40.8257145,38.027419 40.8257145,38.465 C40.8257145,38.902581 40.6508426,39.3220162 40.34,39.63 L40.34,39.63 Z" id="路径" fill="#FFFFFF"></path>
                <path d="M43.18,42.46 L42.68,41.97 L42.68,41.97 L40.34,39.63 L40.34,39.63 C40.0320162,39.9408426 39.612581,40.1157145 39.175,40.1157145 C38.737419,40.1157145 38.3179838,39.9408426 38.01,39.63 L31.91,33.54 C27.8767536,36.4559845 22.3219452,36.0065114 18.81,32.48 L16.91,34.38 L9.32,42 L8.82,42.5 L8.32,43 L8.32,43 C8.18303562,43.1302531 8.10549974,43.3109892 8.10549974,43.5 C8.10549974,43.6890108 8.18303562,43.8697469 8.32,44 C18.2263368,53.3767312 33.7336632,53.3767312 43.64,44 C43.7769644,43.8697469 43.8545003,43.6890108 43.8545003,43.5 C43.8545003,43.3109892 43.7769644,43.1302531 43.64,43 L43.64,43 L43.18,42.46 Z" id="路径" fill="#FFFFFF"></path>
                <polygon id="路径" fill="#999999" points="40.34 39.63 40.34 39.63 42.68 41.97 42.68 41.97 42.68 41.96"></polygon>
                <path d="M26,19.42 C23.6127635,19.4200034 21.4607794,20.8585767 20.5481606,23.0644835 C19.6355417,25.2703904 20.1421562,27.8088683 21.8316185,29.495467 C23.5210808,31.1820658 26.0604144,31.6843734 28.26477,30.7680139 C30.4691255,29.8516544 31.9040462,27.6972331 31.9,25.31 C31.9000023,23.7461407 31.2780779,22.2464787 30.1713249,21.1416015 C29.0645719,20.0367244 27.563857,19.4173449 26,19.42 L26,19.42 Z M29.31,26.21 L26.93,26.21 L26.93,28.57 C26.8801024,29.0544194 26.4719825,29.4226604 25.985,29.4226604 C25.4980175,29.4226604 25.0898976,29.0544194 25.04,28.57 L25.04,26.21 L22.68,26.21 C22.1955806,26.1601024 21.8273396,25.7519825 21.8273396,25.265 C21.8273396,24.7780175 22.1955806,24.3698976 22.68,24.32 L25,24.32 L25,22 C24.962833,21.6391728 25.1343837,21.2886744 25.4421346,21.0966664 C25.7498854,20.9046584 26.1401146,20.9046584 26.4478654,21.0966664 C26.7556163,21.2886744 26.927167,21.6391728 26.89,22 L26.89,24.35 L29.25,24.35 C29.7344194,24.3998976 30.1026604,24.8080175 30.1026604,25.295 C30.1026604,25.7819825 29.7344194,26.1901024 29.25,26.24 L29.31,26.21 Z" id="形状" fill="#FFFFFF"></path>
                <path d="M42.68,8.62 L33.15,18.14 C33.37,18.36 33.58,18.59 33.78,18.83 L44.21,10.3 C43.73,9.72 43.22,9.16 42.68,8.62 Z" id="路径" fill="#F2F2F2"></path>
                <path d="M8.82,8.12 L9.32,8.62 L18.83,18.12 C19.02,17.94 19.21,17.76 19.41,17.59 L10.53,6.59 C9.93458315,7.07086014 9.36385487,7.58151177 8.82,8.12 L8.82,8.12 Z" id="路径" fill="#F2F2F2"></path>
                <path d="M8.82,42.47 L9.32,41.97 L16.91,34.38 L18.81,32.48 C18.64,32.32 18.48,32.14 18.33,31.97 L6.6,41.07 C7.14,41.72 7.71,42.36 8.32,42.97 L8.82,42.47 Z" id="路径" fill="#F2F2F2"></path>
                <path d="M42.68,42 L42.68,42 C43.06,41.62 43.42,41.23 43.76,40.84 L40.76,38.84 C40.6957364,39.1552097 40.5390821,39.4441497 40.31,39.67 L42.68,42 Z" id="路径" fill="#F2F2F2"></path>
            </g>
        </g>
    </g>
</svg>